# xmcd CD database file
#
# Track frame offsets:
#	150
#	25870
#	65547
#	96297
#	116792
#	148897
#	191100
#	224107
#	258027
#
# Disc length: 3584 seconds
#
# Revision: 0
# Processed by: cddbd v1.4PL0 Copyright (c) Steve Scherf et al.
# Submitted via: CDex 1.51
#
DISCID=8f0dfe09
DTITLE=Rick Hollander Quartet - The Music Of Hoagy Carmicael
DYEAR=1995
DGENRE=Jazz
TTITLE0=Skylark
TTITLE1=Star Dust
TTITLE2=Baltttimore Oriole
TTITLE3=Georgia On My Mind
TTITLE4=Hong Kong Blues
TTITLE5=Rockin' Chair
TTITLE6=Ivy
TTITLE7=The Nearness Of You
TTITLE8=Georgia On My Mind
EXTD=YEAR: 1995
EXTT0=
EXTT1=
EXTT2=
EXTT3=
EXTT4=
EXTT5=
EXTT6=
EXTT7=
EXTT8=
PLAYORDER=
